<svg width="225" height="13" viewBox="0 0 225 13" fill="none" xmlns="http://www.w3.org/2000/svg">
<path d="M1 0.5L1 2.18557e-08L2.18557e-08 -2.18557e-08L0 0.5L1 0.5ZM-5.24537e-07 12.5C-5.36607e-07 12.7761 0.223857 13 0.499999 13C0.776142 13 0.999999 12.7761 0.999999 12.5L-5.24537e-07 12.5ZM0 0.5L-5.24537e-07 12.5L0.999999 12.5L1 0.5L0 0.5Z" fill="#565656"/>
<path d="M8 0.5L8 2.18557e-08L7 -2.18557e-08L7 0.5L8 0.5ZM7 12.5C7 12.7761 7.22386 13 7.5 13C7.77614 13 8 12.7761 8 12.5L7 12.5ZM7 0.5L7 12.5L8 12.5L8 0.5L7 0.5Z" fill="#565656"/>
<path d="M15 0.5L15 2.18557e-08L14 -2.18557e-08L14 0.5L15 0.5ZM14 12.5C14 12.7761 14.2239 13 14.5 13C14.7761 13 15 12.7761 15 12.5L14 12.5ZM14 0.5L14 12.5L15 12.5L15 0.5L14 0.5Z" fill="#565656"/>
<path d="M22 0.5L22 2.18557e-08L21 -2.18557e-08L21 0.5L22 0.5ZM21 12.5C21 12.7761 21.2239 13 21.5 13C21.7761 13 22 12.7761 22 12.5L21 12.5ZM21 0.5L21 12.5L22 12.5L22 0.5L21 0.5Z" fill="#565656"/>
<path d="M29 0.5L29 2.18557e-08L28 -2.18557e-08L28 0.5L29 0.5ZM28 12.5C28 12.7761 28.2239 13 28.5 13C28.7761 13 29 12.7761 29 12.5L28 12.5ZM28 0.5L28 12.5L29 12.5L29 0.5L28 0.5Z" fill="#565656"/>
<path d="M36 0.5L36 2.18557e-08L35 -2.18557e-08L35 0.5L36 0.5ZM35 12.5C35 12.7761 35.2239 13 35.5 13C35.7761 13 36 12.7761 36 12.5L35 12.5ZM35 0.5L35 12.5L36 12.5L36 0.5L35 0.5Z" fill="#565656"/>
<path d="M43 0.5L43 2.18557e-08L42 -2.18557e-08L42 0.5L43 0.5ZM42 12.5C42 12.7761 42.2239 13 42.5 13C42.7761 13 43 12.7761 43 12.5L42 12.5ZM42 0.5L42 12.5L43 12.5L43 0.5L42 0.5Z" fill="#565656"/>
<path d="M50 0.5L50 2.18557e-08L49 -2.18557e-08L49 0.5L50 0.5ZM49 12.5C49 12.7761 49.2239 13 49.5 13C49.7761 13 50 12.7761 50 12.5L49 12.5ZM49 0.5L49 12.5L50 12.5L50 0.5L49 0.5Z" fill="#565656"/>
<path d="M57 0.5L57 2.18557e-08L56 -2.18557e-08L56 0.5L57 0.5ZM56 12.5C56 12.7761 56.2239 13 56.5 13C56.7761 13 57 12.7761 57 12.5L56 12.5ZM56 0.5L56 12.5L57 12.5L57 0.5L56 0.5Z" fill="#565656"/>
<path d="M64 0.5L64 2.18557e-08L63 -2.18557e-08L63 0.5L64 0.5ZM63 12.5C63 12.7761 63.2239 13 63.5 13C63.7761 13 64 12.7761 64 12.5L63 12.5ZM63 0.5L63 12.5L64 12.5L64 0.5L63 0.5Z" fill="#565656"/>
<path d="M71 0.5L71 2.18557e-08L70 -2.18557e-08L70 0.5L71 0.5ZM70 12.5C70 12.7761 70.2239 13 70.5 13C70.7761 13 71 12.7761 71 12.5L70 12.5ZM70 0.5L70 12.5L71 12.5L71 0.5L70 0.5Z" fill="#565656"/>
<path d="M78 0.5L78 2.18557e-08L77 -2.18557e-08L77 0.5L78 0.5ZM77 12.5C77 12.7761 77.2239 13 77.5 13C77.7761 13 78 12.7761 78 12.5L77 12.5ZM77 0.5L77 12.5L78 12.5L78 0.5L77 0.5Z" fill="#565656"/>
<path d="M85 0.5L85 2.18557e-08L84 -2.18557e-08L84 0.5L85 0.5ZM84 12.5C84 12.7761 84.2239 13 84.5 13C84.7761 13 85 12.7761 85 12.5L84 12.5ZM84 0.5L84 12.5L85 12.5L85 0.5L84 0.5Z" fill="#565656"/>
<path d="M92 0.5L92 2.18557e-08L91 -2.18557e-08L91 0.5L92 0.5ZM91 12.5C91 12.7761 91.2239 13 91.5 13C91.7761 13 92 12.7761 92 12.5L91 12.5ZM91 0.5L91 12.5L92 12.5L92 0.5L91 0.5Z" fill="#565656"/>
<path d="M99 0.5L99 2.18557e-08L98 -2.18557e-08L98 0.5L99 0.5ZM98 12.5C98 12.7761 98.2239 13 98.5 13C98.7761 13 99 12.7761 99 12.5L98 12.5ZM98 0.5L98 12.5L99 12.5L99 0.5L98 0.5Z" fill="#565656"/>
<path d="M106 0.5L106 2.18557e-08L105 -2.18557e-08L105 0.5L106 0.5ZM105 12.5C105 12.7761 105.224 13 105.5 13C105.776 13 106 12.7761 106 12.5L105 12.5ZM105 0.5L105 12.5L106 12.5L106 0.5L105 0.5Z" fill="#565656"/>
<path d="M113 0.5L113 2.18557e-08L112 -2.18557e-08L112 0.5L113 0.5ZM112 12.5C112 12.7761 112.224 13 112.5 13C112.776 13 113 12.7761 113 12.5L112 12.5ZM112 0.5L112 12.5L113 12.5L113 0.5L112 0.5Z" fill="#565656"/>
<path d="M120 0.5L120 2.18557e-08L119 -2.18557e-08L119 0.5L120 0.5ZM119 12.5C119 12.7761 119.224 13 119.5 13C119.776 13 120 12.7761 120 12.5L119 12.5ZM119 0.5L119 12.5L120 12.5L120 0.5L119 0.5Z" fill="#565656"/>
<path d="M127 0.5L127 2.18557e-08L126 -2.18557e-08L126 0.5L127 0.5ZM126 12.5C126 12.7761 126.224 13 126.5 13C126.776 13 127 12.7761 127 12.5L126 12.5ZM126 0.5L126 12.5L127 12.5L127 0.5L126 0.5Z" fill="#565656"/>
<path d="M134 0.5L134 2.18557e-08L133 -2.18557e-08L133 0.5L134 0.5ZM133 12.5C133 12.7761 133.224 13 133.5 13C133.776 13 134 12.7761 134 12.5L133 12.5ZM133 0.5L133 12.5L134 12.5L134 0.5L133 0.5Z" fill="#565656"/>
<path d="M141 0.5L141 2.18557e-08L140 -2.18557e-08L140 0.5L141 0.5ZM140 12.5C140 12.7761 140.224 13 140.5 13C140.776 13 141 12.7761 141 12.5L140 12.5ZM140 0.5L140 12.5L141 12.5L141 0.5L140 0.5Z" fill="#565656"/>
<path d="M148 0.5L148 2.18557e-08L147 -2.18557e-08L147 0.5L148 0.5ZM147 12.5C147 12.7761 147.224 13 147.5 13C147.776 13 148 12.7761 148 12.5L147 12.5ZM147 0.5L147 12.5L148 12.5L148 0.5L147 0.5Z" fill="#565656"/>
<path d="M155 0.5L155 2.18557e-08L154 -2.18557e-08L154 0.5L155 0.5ZM154 12.5C154 12.7761 154.224 13 154.5 13C154.776 13 155 12.7761 155 12.5L154 12.5ZM154 0.5L154 12.5L155 12.5L155 0.5L154 0.5Z" fill="#565656"/>
<path d="M162 0.5L162 2.18557e-08L161 -2.18557e-08L161 0.5L162 0.5ZM161 12.5C161 12.7761 161.224 13 161.5 13C161.776 13 162 12.7761 162 12.5L161 12.5ZM161 0.5L161 12.5L162 12.5L162 0.5L161 0.5Z" fill="#565656"/>
<path d="M169 0.5L169 2.18557e-08L168 -2.18557e-08L168 0.5L169 0.5ZM168 12.5C168 12.7761 168.224 13 168.5 13C168.776 13 169 12.7761 169 12.5L168 12.5ZM168 0.5L168 12.5L169 12.5L169 0.5L168 0.5Z" fill="#565656"/>
<path d="M176 0.5L176 2.18557e-08L175 -2.18557e-08L175 0.5L176 0.5ZM175 12.5C175 12.7761 175.224 13 175.5 13C175.776 13 176 12.7761 176 12.5L175 12.5ZM175 0.5L175 12.5L176 12.5L176 0.5L175 0.5Z" fill="#565656"/>
<path d="M183 0.5L183 2.18557e-08L182 -2.18557e-08L182 0.5L183 0.5ZM182 12.5C182 12.7761 182.224 13 182.5 13C182.776 13 183 12.7761 183 12.5L182 12.5ZM182 0.5L182 12.5L183 12.5L183 0.5L182 0.5Z" fill="#565656"/>
<path d="M190 0.5L190 2.18557e-08L189 -2.18557e-08L189 0.5L190 0.5ZM189 12.5C189 12.7761 189.224 13 189.5 13C189.776 13 190 12.7761 190 12.5L189 12.5ZM189 0.5L189 12.5L190 12.5L190 0.5L189 0.5Z" fill="#565656"/>
<path d="M197 0.5L197 2.18557e-08L196 -2.18557e-08L196 0.5L197 0.5ZM196 12.5C196 12.7761 196.224 13 196.5 13C196.776 13 197 12.7761 197 12.5L196 12.5ZM196 0.5L196 12.5L197 12.5L197 0.5L196 0.5Z" fill="#565656"/>
<path d="M204 0.5L204 2.18557e-08L203 -2.18557e-08L203 0.5L204 0.5ZM203 12.5C203 12.7761 203.224 13 203.5 13C203.776 13 204 12.7761 204 12.5L203 12.5ZM203 0.5L203 12.5L204 12.5L204 0.5L203 0.5Z" fill="#565656"/>
<path d="M211 0.5L211 2.18557e-08L210 -2.18557e-08L210 0.5L211 0.5ZM210 12.5C210 12.7761 210.224 13 210.5 13C210.776 13 211 12.7761 211 12.5L210 12.5ZM210 0.5L210 12.5L211 12.5L211 0.5L210 0.5Z" fill="#565656"/>
<path d="M218 0.5L218 2.18557e-08L217 -2.18557e-08L217 0.5L218 0.5ZM217 12.5C217 12.7761 217.224 13 217.5 13C217.776 13 218 12.7761 218 12.5L217 12.5ZM217 0.5L217 12.5L218 12.5L218 0.5L217 0.5Z" fill="#565656"/>
<path d="M225 0.5L225 2.18557e-08L224 -2.18557e-08L224 0.5L225 0.5ZM224 12.5C224 12.7761 224.224 13 224.5 13C224.776 13 225 12.7761 225 12.5L224 12.5ZM224 0.5L224 12.5L225 12.5L225 0.5L224 0.5Z" fill="#565656"/>
</svg>
